<svg width="20" height="21" viewBox="0 0 20 21" fill="none" xmlns="http://www.w3.org/2000/svg">
                            <g clip-path="url(#clip0_1_94)">
                            <path d="M4.16667 0.5H0.833333C0.61232 0.5 0.400358 0.587797 0.244078 0.744078C0.0877974 0.900358 0 1.11232 0 1.33333L0 4.66667C0 4.88768 0.0877974 5.09964 0.244078 5.25592C0.400358 5.4122 0.61232 5.5 0.833333 5.5H4.16667C4.38768 5.5 4.59964 5.4122 4.75592 5.25592C4.9122 5.09964 5 4.88768 5 4.66667V1.33333C5 1.11232 4.9122 0.900358 4.75592 0.744078C4.59964 0.587797 4.38768 0.5 4.16667 0.5ZM4.16667 8H0.833333C0.61232 8 0.400358 8.0878 0.244078 8.24408C0.0877974 8.40036 0 8.61232 0 8.83333L0 12.1667C0 12.3877 0.0877974 12.5996 0.244078 12.7559C0.400358 12.9122 0.61232 13 0.833333 13H4.16667C4.38768 13 4.59964 12.9122 4.75592 12.7559C4.9122 12.5996 5 12.3877 5 12.1667V8.83333C5 8.61232 4.9122 8.40036 4.75592 8.24408C4.59964 8.0878 4.38768 8 4.16667 8ZM4.16667 15.5H0.833333C0.61232 15.5 0.400358 15.5878 0.244078 15.7441C0.0877974 15.9004 0 16.1123 0 16.3333L0 19.6667C0 19.8877 0.0877974 20.0996 0.244078 20.2559C0.400358 20.4122 0.61232 20.5 0.833333 20.5H4.16667C4.38768 20.5 4.59964 20.4122 4.75592 20.2559C4.9122 20.0996 5 19.8877 5 19.6667V16.3333C5 16.1123 4.9122 15.9004 4.75592 15.7441C4.59964 15.5878 4.38768 15.5 4.16667 15.5ZM11.6667 0.5H8.33333C8.11232 0.5 7.90036 0.587797 7.74408 0.744078C7.5878 0.900358 7.5 1.11232 7.5 1.33333V4.66667C7.5 4.88768 7.5878 5.09964 7.74408 5.25592C7.90036 5.4122 8.11232 5.5 8.33333 5.5H11.6667C11.8877 5.5 12.0996 5.4122 12.2559 5.25592C12.4122 5.09964 12.5 4.88768 12.5 4.66667V1.33333C12.5 1.11232 12.4122 0.900358 12.2559 0.744078C12.0996 0.587797 11.8877 0.5 11.6667 0.5ZM11.6667 8H8.33333C8.11232 8 7.90036 8.0878 7.74408 8.24408C7.5878 8.40036 7.5 8.61232 7.5 8.83333V12.1667C7.5 12.3877 7.5878 12.5996 7.74408 12.7559C7.90036 12.9122 8.11232 13 8.33333 13H11.6667C11.8877 13 12.0996 12.9122 12.2559 12.7559C12.4122 12.5996 12.5 12.3877 12.5 12.1667V8.83333C12.5 8.61232 12.4122 8.40036 12.2559 8.24408C12.0996 8.0878 11.8877 8 11.6667 8ZM11.6667 15.5H8.33333C8.11232 15.5 7.90036 15.5878 7.74408 15.7441C7.5878 15.9004 7.5 16.1123 7.5 16.3333V19.6667C7.5 19.8877 7.5878 20.0996 7.74408 20.2559C7.90036 20.4122 8.11232 20.5 8.33333 20.5H11.6667C11.8877 20.5 12.0996 20.4122 12.2559 20.2559C12.4122 20.0996 12.5 19.8877 12.5 19.6667V16.3333C12.5 16.1123 12.4122 15.9004 12.2559 15.7441C12.0996 15.5878 11.8877 15.5 11.6667 15.5ZM19.1667 0.5H15.8333C15.6123 0.5 15.4004 0.587797 15.2441 0.744078C15.0878 0.900358 15 1.11232 15 1.33333V4.66667C15 4.88768 15.0878 5.09964 15.2441 5.25592C15.4004 5.4122 15.6123 5.5 15.8333 5.5H19.1667C19.3877 5.5 19.5996 5.4122 19.7559 5.25592C19.9122 5.09964 20 4.88768 20 4.66667V1.33333C20 1.11232 19.9122 0.900358 19.7559 0.744078C19.5996 0.587797 19.3877 0.5 19.1667 0.5ZM19.1667 8H15.8333C15.6123 8 15.4004 8.0878 15.2441 8.24408C15.0878 8.40036 15 8.61232 15 8.83333V12.1667C15 12.3877 15.0878 12.5996 15.2441 12.7559C15.4004 12.9122 15.6123 13 15.8333 13H19.1667C19.3877 13 19.5996 12.9122 19.7559 12.7559C19.9122 12.5996 20 12.3877 20 12.1667V8.83333C20 8.61232 19.9122 8.40036 19.7559 8.24408C19.5996 8.0878 19.3877 8 19.1667 8ZM19.1667 15.5H15.8333C15.6123 15.5 15.4004 15.5878 15.2441 15.7441C15.0878 15.9004 15 16.1123 15 16.3333V19.6667C15 19.8877 15.0878 20.0996 15.2441 20.2559C15.4004 20.4122 15.6123 20.5 15.8333 20.5H19.1667C19.3877 20.5 19.5996 20.4122 19.7559 20.2559C19.9122 20.0996 20 19.8877 20 19.6667V16.3333C20 16.1123 19.9122 15.9004 19.7559 15.7441C19.5996 15.5878 19.3877 15.5 19.1667 15.5Z" fill="white"/>
                            </g>
                            <defs>
                            <clipPath id="clip0_1_94">
                            <rect width="20" height="20" fill="white" transform="translate(0 0.5)"/>
                            </clipPath>
                            </defs>
                            </svg>