<svg xmlns="http://www.w3.org/2000/svg" width="20" height="20" viewBox="0 0 20 20" fill="none">
<g clip-path="url(#clip0_599_10991)">
<path d="M9.04369 9.93304L0.191191 18.7855C-0.0547461 19.0315 -0.0547461 19.4299 0.191191 19.6758C0.314004 19.799 0.475254 19.8602 0.636191 19.8602C0.797441 19.8602 0.958379 19.799 1.08119 19.6758L10.0003 10.7568L18.9193 19.6758C19.0424 19.799 19.2034 19.8602 19.3643 19.8602C19.5253 19.8602 19.6865 19.799 19.8093 19.6758C20.0553 19.4299 20.0553 19.0315 19.8093 18.7855L10.9571 9.93304L19.8153 1.07429C20.0612 0.82835 20.0612 0.429912 19.8153 0.183975C19.5693 -0.0616504 19.1709 -0.0616504 18.9253 0.183975L10.0006 9.10929L1.07494 0.184287C0.829004 -0.0613379 0.430879 -0.0613379 0.184941 0.184287C-0.0609961 0.430225 -0.0609961 0.828662 0.184941 1.0746L9.04369 9.93304Z" fill="#1D1D1B"/>
</g>
<defs>
<clipPath id="clip0_599_10991">
<rect width="20" height="20" fill="white"/>
</clipPath>
</defs>
</svg>