<svg width="37" height="37" viewBox="0 0 37 37" fill="none" xmlns="http://www.w3.org/2000/svg">
                            <g clip-path="url(#clip0_1_455)">
                            <path fill-rule="evenodd" clip-rule="evenodd" d="M18.4978 0C8.28171 0 0 8.28271 0 18.5C0 28.7173 8.28171 37 18.4978 37C28.7138 37 36.9955 28.7173 36.9955 18.5C36.9955 8.28271 28.7138 0 18.4978 0ZM23.0647 10.2742C24.2277 10.3009 25.1188 11.2197 25.1145 12.3877C25.1104 13.5428 24.1826 14.4725 23.0363 14.4705C21.9091 14.4686 20.9649 13.5037 20.9692 12.3583C20.9734 11.2197 21.9498 10.2487 23.0647 10.2742ZM13.9084 10.268C15.0329 10.2518 16.02 11.2391 16.0275 12.3876C16.0348 13.4798 15.0612 14.4642 13.9677 14.4704C12.7781 14.4771 11.8793 13.5683 11.8833 12.3631C11.8871 11.2254 12.797 10.2841 13.9084 10.268ZM31.0836 23.131C30.717 23.6213 30.0228 23.8182 29.4583 23.5929C29.1372 23.4648 28.9374 23.1904 28.7017 22.961C28.2913 22.5619 28.2805 22.5577 27.8653 22.923C26.112 24.4651 24.0994 25.5236 21.8297 26.0533C17.4769 27.0693 13.4945 26.2177 9.88959 23.5857C9.56479 23.3485 9.25112 23.0919 8.95794 22.8171C8.74944 22.6217 8.60937 22.6452 8.41677 22.8348C8.10336 23.1434 7.84414 23.5214 7.36898 23.633C6.7878 23.7694 6.17568 23.5485 5.8609 23.0559C5.55415 22.5757 5.55899 21.8484 5.9543 21.4395C7.0351 20.3214 8.13032 19.2162 9.25181 18.1392C9.75454 17.6564 10.6173 17.7351 11.1002 18.2274C11.6108 18.748 11.6289 19.5402 11.143 20.1082C10.6568 20.6763 10.6542 20.6795 11.2479 21.1515C13.1025 22.626 15.2023 23.473 17.5731 23.6537C20.6669 23.8895 23.3936 22.9814 25.807 21.0652C25.8746 21.0115 25.9329 20.946 26.002 20.8947C26.2649 20.6992 26.3129 20.51 26.028 20.2804C25.8383 20.1275 25.6839 19.939 25.5933 19.6995C25.2411 18.7687 25.8717 17.8455 26.9097 17.8435C27.2169 17.8222 27.5345 17.9171 27.7808 18.1614C28.8541 19.2263 29.9326 20.2871 30.9801 21.3772C31.4529 21.8693 31.4622 22.6249 31.0836 23.131Z" fill="#039BE5"/>
                            </g>
                            <defs>
                            <clipPath id="clip0_1_455">
                            <rect width="37" height="37" fill="white"/>
                            </clipPath>
                            </defs>
                        </svg>   