<svg width="37" height="37" viewBox="0 0 37 37" fill="none" xmlns="http://www.w3.org/2000/svg">
                            <g clip-path="url(#clip0_1_422)">
                            <path d="M18.5 37C28.7173 37 37 28.7173 37 18.5C37 8.28273 28.7173 0 18.5 0C8.28273 0 0 8.28273 0 18.5C0 28.7173 8.28273 37 18.5 37Z" fill="#F96600"/>
                            <path d="M17.3626 23.2259C15.5694 23.0388 13.9527 22.5952 12.5694 21.5147C12.3971 21.3801 12.2205 21.2498 12.0628 21.0942C11.4573 20.5119 11.3964 19.8455 11.8757 19.1601C12.2856 18.5715 12.9731 18.4138 13.6899 18.7523C13.8276 18.822 13.9597 18.9021 14.0852 18.9919C15.3671 19.8631 16.8781 20.3356 18.4279 20.3498C19.9778 20.364 21.4972 19.9194 22.7949 19.0718C23.0428 18.8709 23.3289 18.7221 23.6358 18.6345C23.9212 18.5502 24.2266 18.5642 24.5031 18.6744C24.7795 18.7846 25.0109 18.9845 25.1599 19.2421C25.5384 19.8602 25.5342 20.4614 25.0674 20.9407C24.3521 21.6642 23.4876 22.2231 22.5342 22.5784C21.606 22.9119 20.64 23.1287 19.6583 23.2238C19.8055 23.3857 19.8685 23.4635 19.9694 23.556C21.3002 24.8951 22.6372 26.228 23.9638 27.5692C24.1751 27.7613 24.3184 28.0168 24.3723 28.2973C24.4261 28.5778 24.3875 28.8682 24.2623 29.1249C24.1348 29.4063 23.9272 29.6438 23.6655 29.808C23.4038 29.9721 23.0995 30.0555 22.7907 30.0478C22.4294 30.0122 22.0951 29.8409 21.8552 29.5685C20.8503 28.5573 19.8265 27.565 18.8426 26.5349C18.5567 26.2364 18.4222 26.2931 18.1657 26.5517C17.1545 27.6028 16.1265 28.6182 15.0943 29.6357C14.9026 29.8482 14.6458 29.9909 14.3642 30.0415C14.0826 30.0921 13.7922 30.0477 13.5386 29.9153C13.2638 29.787 13.0319 29.582 12.8708 29.3251C12.7097 29.0681 12.6262 28.7701 12.6304 28.4669C12.6608 28.0921 12.8357 27.7438 13.1181 27.4956C14.4384 26.1796 15.7544 24.8629 17.0662 23.5455C17.1545 23.4551 17.2386 23.3605 17.3626 23.2259Z" fill="white"/>
                            <path d="M18.4536 18.6429C17.2943 18.6361 16.1631 18.2852 15.2035 17.6346C14.2439 16.9841 13.4992 16.0632 13.0637 14.9888C12.6282 13.9144 12.5216 12.7348 12.7574 11.5997C12.9932 10.4647 13.5608 9.42517 14.3882 8.61312C15.2156 7.80107 16.2656 7.25305 17.4049 7.03855C18.5442 6.82405 19.7215 6.95275 20.7876 7.40831C21.8537 7.86387 22.7604 8.62578 23.3929 9.5974C24.0253 10.569 24.3549 11.7066 24.34 12.8658C24.3189 14.4104 23.6885 15.8841 22.5861 16.9661C21.4836 18.0481 19.9983 18.6508 18.4536 18.6429ZM21.3611 12.7838C21.3594 12.2172 21.1896 11.6637 20.8732 11.1936C20.5568 10.7235 20.1081 10.3578 19.5838 10.1429C19.0594 9.928 18.4831 9.87349 17.9278 9.98629C17.3725 10.0991 16.8631 10.3741 16.4642 10.7766C16.0653 11.179 15.7948 11.6908 15.6869 12.2471C15.579 12.8034 15.6386 13.3792 15.8581 13.9016C16.0776 14.424 16.4473 14.8695 16.9201 15.1817C17.393 15.494 17.9479 15.6589 18.5146 15.6555C18.8903 15.6547 19.2621 15.5797 19.6087 15.4348C19.9554 15.2898 20.27 15.0779 20.5344 14.8111C20.7989 14.5442 21.0081 14.2278 21.15 13.8799C21.2918 13.532 21.3636 13.1595 21.3611 12.7838Z" fill="white"/>
                            </g>
                            <defs>
                            <clipPath id="clip0_1_422">
                            <rect width="37" height="37" fill="white"/>
                            </clipPath>
                            </defs>
                        </svg> 