<svg width="37" height="37" viewBox="0 0 37 37" fill="none" xmlns="http://www.w3.org/2000/svg">
                            <g clip-path="url(#clip0_1_430)">
                            <path d="M18.5 37C28.7173 37 37 28.7173 37 18.5C37 8.28273 28.7173 0 18.5 0C8.28273 0 0 8.28273 0 18.5C0 28.7173 8.28273 37 18.5 37Z" fill="#03A9F4"/>
                            <path d="M30.4836 11.0684C29.5822 11.4621 28.6287 11.7236 27.6526 11.8449C28.6816 11.2348 29.4508 10.2681 29.8142 9.12837C28.8511 9.70001 27.7973 10.1026 26.6984 10.3187C26.025 9.59854 25.1505 9.09768 24.1886 8.88127C23.2267 8.66486 22.2219 8.74291 21.305 9.10528C20.3881 9.46764 19.6014 10.0975 19.0473 10.9131C18.4932 11.7286 18.1973 12.692 18.1982 13.6779C18.1947 14.0542 18.2331 14.4298 18.3126 14.7976C16.3578 14.7016 14.4453 14.1943 12.7 13.3089C10.9547 12.4234 9.41577 11.1797 8.18381 9.65903C7.55058 10.7408 7.35439 12.0236 7.63536 13.2452C7.91633 14.4668 8.65323 15.535 9.69546 16.2314C8.91754 16.2104 8.1561 16.0025 7.47546 15.6253V15.6788C7.47765 16.8127 7.87013 17.9113 8.58694 18.79C9.30375 19.6686 10.3012 20.2736 11.4116 20.5034C10.9914 20.6138 10.5583 20.6679 10.1239 20.6641C9.81105 20.6699 9.4985 20.6421 9.19158 20.5813C9.5097 21.5565 10.1222 22.4092 10.9447 23.0221C11.7673 23.635 12.7595 23.9779 13.7849 24.0038C12.0472 25.3621 9.90498 26.0999 7.69941 26.0997C7.30642 26.103 6.91365 26.0803 6.52368 26.0315C8.77258 27.4815 11.394 28.2476 14.0697 28.2369C23.1128 28.2369 28.0567 20.7469 28.0567 14.2548C28.0567 14.0382 28.0567 13.8288 28.0397 13.6195C29.0025 12.9246 29.8307 12.0602 30.4836 11.0684Z" fill="white"/>
                            </g>
                            <defs>
                            <clipPath id="clip0_1_430">
                            <rect width="37" height="37" fill="white"/>
                            </clipPath>
                            </defs>
                        </svg>   