<svg width="37" height="37" viewBox="0 0 37 37" fill="none" xmlns="http://www.w3.org/2000/svg">
                            <g clip-path="url(#clip0_1_436)">
                            <path d="M18.5 37C28.7173 37 37 28.7173 37 18.5C37 8.28273 28.7173 0 18.5 0C8.28273 0 0 8.28273 0 18.5C0 28.7173 8.28273 37 18.5 37Z" fill="#6F3FAA"/>
                            <path d="M29.1859 12.498V12.4707C28.9378 11.4658 28.2903 10.4273 27.441 9.55276C26.4487 8.52685 25.1853 7.72168 23.9786 7.461H23.9533C20.3548 6.77146 16.658 6.77146 13.0594 7.461H13.0341C10.7931 7.94663 8.36079 10.2886 7.8184 12.4707V12.498C7.152 15.5234 7.152 18.6575 7.8184 21.6829V21.7081C8.20522 23.2638 9.55068 24.8994 11.1022 25.8874C11.6088 26.2176 12.1604 26.4732 12.7398 26.6463V29.0808C12.7406 29.2753 12.7994 29.4652 12.9085 29.6263C13.0177 29.7873 13.1723 29.9122 13.3527 29.9851C13.5331 30.0579 13.7311 30.0754 13.9215 30.0353C14.1119 29.9951 14.286 29.8993 14.4216 29.7598L16.8897 27.195C17.4237 27.2245 17.9619 27.2413 18.4958 27.2413C20.3237 27.2407 22.1475 27.0676 23.9428 26.7241H23.9681C26.2028 26.2364 28.6372 23.8945 29.1754 21.7123V21.6871C29.8459 18.6611 29.8495 15.5255 29.1859 12.498ZM27.2329 21.233C26.8713 22.6562 25.0255 24.4284 23.556 24.7543C21.6474 25.1199 19.7048 25.2785 17.7622 25.2273C17.7432 25.2261 17.7243 25.2293 17.7068 25.2366C17.6893 25.2439 17.6737 25.2551 17.6612 25.2694L15.8596 27.1194L13.9423 29.085C13.9117 29.1174 13.872 29.1399 13.8284 29.1495C13.7848 29.1591 13.7393 29.1553 13.6979 29.1388C13.6564 29.1223 13.6209 29.0937 13.5959 29.0567C13.5709 29.0198 13.5575 28.9761 13.5576 28.9315V24.8952C13.5577 24.8627 13.5463 24.8312 13.5256 24.8063C13.5048 24.7813 13.476 24.7644 13.4441 24.7585C13.1376 24.6857 12.8421 24.5726 12.5653 24.4221C11.3166 23.7557 10.0573 22.3892 9.76721 21.233C9.1663 18.4983 9.1663 15.6658 9.76721 12.9311C10.1267 11.5142 11.983 9.74617 13.442 9.41822C16.783 8.77895 20.215 8.77895 23.556 9.41822C24.3654 9.59901 25.2904 10.215 26.0136 10.9718C26.6085 11.5878 27.0647 12.2983 27.2329 12.9374C27.8329 15.6701 27.8329 18.5003 27.2329 21.233Z" fill="white"/>
                            <path d="M23.6085 21.4432C23.3353 22.0665 22.8658 22.5833 22.2714 22.9148C22.0849 22.9939 21.8914 23.0552 21.6933 23.0977C21.4683 23.0304 21.2539 22.9842 21.0626 22.9022C19.469 22.2821 17.9855 21.4097 16.6689 20.3185C16.2778 19.985 15.9104 19.6246 15.5694 19.24C14.7273 18.2703 14.0201 17.1911 13.4671 16.032C13.198 15.4833 12.971 14.9156 12.7397 14.3501C12.5295 13.8351 12.8406 13.299 13.1602 12.9143C13.473 12.5575 13.8577 12.2709 14.2891 12.0734C14.4409 11.9971 14.6146 11.9763 14.7801 12.0147C14.9456 12.0531 15.0925 12.1483 15.1952 12.2836C15.7323 12.8871 16.2057 13.5444 16.6079 14.245C16.7346 14.4488 16.778 14.6934 16.729 14.9283C16.6801 15.1632 16.5426 15.3702 16.3451 15.5064C16.24 15.58 16.1349 15.6641 16.0445 15.746C15.9554 15.812 15.8785 15.8932 15.8174 15.9857C15.7647 16.0723 15.7328 16.1699 15.724 16.271C15.7153 16.372 15.73 16.4736 15.767 16.568C16.1727 17.6843 16.7887 18.6156 17.7095 19.2695C18.0211 19.4898 18.3568 19.6739 18.7102 19.8181C18.9409 19.9436 19.2002 20.0074 19.4628 20.0031C19.9211 19.9485 20.0724 19.4418 20.392 19.1812C20.5387 19.0611 20.7202 18.9915 20.9095 18.9828C21.0989 18.9741 21.286 19.0267 21.4431 19.1328C21.7837 19.343 22.1116 19.5806 22.4396 19.8118C22.764 20.0332 23.0763 20.2718 23.3751 20.5266C23.5149 20.6281 23.6147 20.7754 23.6573 20.9428C23.7 21.1102 23.6827 21.2872 23.6085 21.4432ZM19.1033 11.3691H18.8342C18.9204 11.3649 19.0108 11.3691 19.1033 11.3691Z" fill="white"/>
                            <path d="M23.7556 17.6696C23.5454 17.6696 23.4424 17.4909 23.4277 17.2954C23.4004 16.9107 23.3793 16.5239 23.3268 16.1413C23.2359 15.4957 23.0111 14.8763 22.6667 14.3228C22.3127 13.7462 21.8416 13.2503 21.2839 12.8671C20.7263 12.484 20.0944 12.2222 19.4292 12.0986C19.1264 12.0439 18.8174 12.0313 18.5126 11.9998C18.3192 11.9788 18.0648 11.9661 18.0227 11.7265C18.0165 11.6799 18.0202 11.6326 18.0337 11.5876C18.0471 11.5426 18.0701 11.501 18.1009 11.4656C18.1318 11.4302 18.1698 11.4017 18.2125 11.3822C18.2552 11.3627 18.3016 11.3525 18.3486 11.3523C18.399 11.3494 18.4495 11.3494 18.5 11.3523C19.4189 11.3601 20.3217 11.5943 21.1284 12.0344C21.9352 12.4744 22.6209 13.1066 23.125 13.875C23.5229 14.4943 23.793 15.1869 23.9196 15.9121C23.9995 16.3662 24.0289 16.8329 24.0647 17.2954C24.0719 17.3407 24.0693 17.3871 24.0572 17.4313C24.0451 17.4756 24.0238 17.5168 23.9945 17.5522C23.9653 17.5876 23.9289 17.6163 23.8877 17.6366C23.8465 17.6568 23.8015 17.6681 23.7556 17.6696Z" fill="white"/>
                            <path d="M22.6183 16.6879C22.6171 16.7504 22.6086 16.8125 22.5931 16.8729C22.5747 16.9337 22.5381 16.9874 22.4881 17.0266C22.4382 17.0658 22.3774 17.0887 22.314 17.0921C22.2506 17.0956 22.1877 17.0794 22.1338 17.0458C22.0799 17.0123 22.0377 16.9629 22.0128 16.9045C21.9897 16.8196 21.9791 16.7317 21.9813 16.6438C21.9862 16.1736 21.8931 15.7075 21.708 15.2752C21.666 15.1827 21.6197 15.0881 21.5672 14.9977C21.2662 14.479 20.8196 14.0601 20.2827 13.7931C19.9587 13.6402 19.6147 13.534 19.261 13.4778C19.1054 13.4525 18.9498 13.4378 18.7943 13.4168C18.7538 13.4148 18.7141 13.4044 18.6778 13.3865C18.6414 13.3685 18.6091 13.3433 18.5829 13.3123C18.5567 13.2814 18.5372 13.2454 18.5254 13.2066C18.5137 13.1678 18.51 13.127 18.5147 13.0867C18.5147 13.0455 18.5234 13.0048 18.5403 12.9672C18.5572 12.9296 18.5818 12.896 18.6126 12.8686C18.6433 12.8412 18.6795 12.8207 18.7188 12.8083C18.7581 12.7958 18.7996 12.7919 18.8405 12.7966C19.4578 12.8204 20.0625 12.9783 20.6127 13.2591C21.2846 13.5972 21.8327 14.1387 22.1789 14.8064C22.3739 15.1963 22.5045 15.6151 22.5657 16.0467C22.5771 16.103 22.5855 16.1599 22.591 16.217C22.6015 16.3432 22.6057 16.4693 22.6162 16.6249C22.6162 16.6396 22.6183 16.6585 22.6183 16.6879Z" fill="white"/>
                            <path d="M21.1784 16.3977C21.1665 16.451 21.1389 16.4995 21.0992 16.537C21.0595 16.5744 21.0095 16.5991 20.9556 16.6079H20.9093C20.8404 16.6124 20.772 16.5943 20.7143 16.5563C20.6567 16.5184 20.6129 16.4627 20.5898 16.3977C20.5767 16.3632 20.5682 16.3272 20.5645 16.2905C20.5535 16.149 20.5324 16.0085 20.5015 15.87C20.439 15.5897 20.2797 15.3403 20.0516 15.1658C19.9413 15.0866 19.8183 15.0268 19.6879 14.9892C19.5218 14.9408 19.3473 14.9534 19.1834 14.9135C19.1023 14.8991 19.0303 14.8532 18.983 14.7858C18.9357 14.7185 18.917 14.6351 18.9311 14.554C18.9467 14.4763 18.9902 14.407 19.0532 14.359C19.1163 14.311 19.1947 14.2877 19.2738 14.2933C20.2366 14.3627 20.9556 14.8252 21.1406 15.8574C21.1596 15.9532 21.1729 16.0501 21.1805 16.1475C21.1923 16.2305 21.1916 16.3149 21.1784 16.3977Z" fill="white"/>
                            </g>
                            <defs>
                            <clipPath id="clip0_1_436">
                            <rect width="37" height="37" fill="white"/>
                            </clipPath>
                            </defs>
                        </svg>    