<svg width="37" height="37" viewBox="0 0 37 37" fill="none" xmlns="http://www.w3.org/2000/svg">
                            <g clip-path="url(#clip0_1_415)">
                            <path d="M18.5 0C8.28273 0 0 8.28273 0 18.5C0 28.7173 8.28273 37 18.5 37C28.7173 37 37 28.7173 37 18.5C37 8.28273 28.7173 0 18.5 0ZM29.3566 25.2598L26.1654 25.3036C26.1654 25.3036 25.4789 25.4399 24.5783 24.8167C23.3831 23.9964 22.2585 21.8665 21.3822 22.1391C20.5059 22.4117 20.5205 24.3299 20.5205 24.3299C20.5233 24.5549 20.4542 24.7749 20.3233 24.9579C20.1391 25.1158 19.912 25.2149 19.671 25.2427H18.2567C18.2567 25.2427 15.0922 25.4302 12.3294 22.5432C9.29148 19.4079 6.61628 13.1447 6.61628 13.1447C6.61628 13.1447 6.45874 12.7814 6.63088 12.5361C6.77967 12.3241 7.14664 12.3013 7.33193 12.2927C8.13068 12.2554 10.5305 12.2708 10.5305 12.2708C10.7312 12.2659 10.8661 12.2764 11.1147 12.3852C11.3283 12.4908 11.4903 12.6481 11.5942 12.9013C11.9634 13.8207 12.392 14.7151 12.8771 15.579C14.3035 18.0448 14.9681 18.5827 15.4525 18.3198C16.156 17.9352 15.9393 14.8365 15.9393 14.8365C15.9393 14.8365 15.9393 13.7094 15.5839 13.2104C15.3165 12.8979 14.9391 12.7001 14.5299 12.6579C14.3376 12.6311 14.6541 12.1856 15.063 11.986C15.6764 11.6842 16.7622 11.6842 18.0425 11.6842C18.6059 11.6629 19.1696 11.7203 19.7172 11.8546C20.8954 12.1394 20.4962 13.2348 20.4962 15.8686C20.4962 16.7108 20.3428 17.8988 20.9514 18.3028C21.2143 18.4707 21.852 18.3271 23.4537 15.6105C23.9647 14.7116 24.4082 13.7759 24.7804 12.8112C24.8521 12.6579 24.9608 12.5248 25.0968 12.4241C25.2407 12.3525 25.4023 12.3246 25.5618 12.3438L29.1547 12.3194C29.1547 12.3194 30.233 12.1904 30.4083 12.6797C30.5835 13.169 30.0042 14.3836 28.5364 16.3309C26.1266 19.5441 25.8587 19.252 27.8597 21.0995C29.7705 22.8741 30.1674 23.7382 30.233 23.8453C31.0264 25.1552 29.3566 25.2598 29.3566 25.2598Z" fill="#4C75A3"/>
                            </g>
                            <defs>
                            <clipPath id="clip0_1_415">
                            <rect width="37" height="37" fill="white"/>
                            </clipPath>
                            </defs>
                        </svg>   