<svg width="37" height="37" viewBox="0 0 37 37" fill="none" xmlns="http://www.w3.org/2000/svg">
                            <g clip-path="url(#clip0_1_447)">
                            <path d="M18.5 37C28.7173 37 37 28.7173 37 18.5C37 8.28273 28.7173 0 18.5 0C8.28273 0 0 8.28273 0 18.5C0 28.7173 8.28273 37 18.5 37Z" fill="#2AA81A"/>
                            <path d="M25.026 11.9738C23.4866 10.4169 21.4413 9.46175 19.2593 9.28071C17.0774 9.09967 14.9026 9.70469 13.1276 10.9865C11.3527 12.2684 10.0945 14.1426 9.58022 16.2708C9.06597 18.399 9.32956 20.6409 10.3234 22.5918L9.34969 27.3191C9.33927 27.3663 9.33886 27.4151 9.34851 27.4625C9.35815 27.5099 9.37763 27.5547 9.40568 27.5941C9.44585 27.6538 9.50328 27.6997 9.57027 27.7258C9.63726 27.7519 9.71063 27.7569 9.78055 27.7402L14.4055 26.6423C16.3511 27.6101 18.5769 27.8561 20.6869 27.3366C22.7968 26.817 24.6539 25.5657 25.9277 23.8052C27.2014 22.0447 27.8092 19.8894 27.6427 17.7228C27.4763 15.5563 26.5464 13.519 25.0187 11.9738H25.026ZM23.5801 23.5047C22.5154 24.5674 21.1444 25.2698 19.6599 25.513C18.1753 25.7562 16.6519 25.528 15.3038 24.8605L14.6563 24.5392L11.8155 25.211V25.1745L12.4144 22.3095L12.0979 21.6863C11.4086 20.3345 11.1652 18.7991 11.4027 17.3004C11.6401 15.8017 12.3463 14.4167 13.4197 13.3443C14.7675 11.9978 16.5948 11.2415 18.4999 11.2415C20.405 11.2415 22.2323 11.9978 23.5801 13.3443L23.6117 13.3881C24.9421 14.7388 25.6847 16.5605 25.6778 18.4563C25.671 20.3521 24.9152 22.1684 23.5752 23.5095L23.5801 23.5047Z" fill="white"/>
                            <path d="M23.3294 21.4209C22.9813 21.9686 22.4287 22.638 21.7398 22.8059C20.5227 23.098 18.6703 22.8059 16.3505 20.6614L16.3213 20.6346C14.3033 18.7505 13.7678 17.1805 13.8871 15.9366C13.9576 15.2282 14.5467 14.5905 15.0433 14.1718C15.1223 14.1052 15.2157 14.058 15.3161 14.034C15.4166 14.01 15.5212 14.0098 15.6218 14.0335C15.7223 14.0571 15.8159 14.104 15.8951 14.1702C15.9743 14.2365 16.0369 14.3204 16.0778 14.4152L16.8251 16.1046C16.8739 16.2133 16.8922 16.3333 16.8781 16.4516C16.8639 16.57 16.8179 16.6822 16.7448 16.7764L16.3651 17.2632C16.2862 17.3643 16.2391 17.4866 16.23 17.6145C16.2209 17.7424 16.2501 17.8701 16.314 17.9813C16.6747 18.513 17.1063 18.9929 17.5968 19.4078C18.1246 19.9157 18.7231 20.3445 19.3738 20.6809C19.4925 20.7287 19.6228 20.7402 19.7481 20.7137C19.8734 20.6873 19.988 20.6242 20.0773 20.5324L20.513 20.0894C20.5959 20.0002 20.7019 19.9357 20.8191 19.9031C20.9364 19.8704 21.0605 19.8709 21.1775 19.9044L22.9545 20.4131C23.0552 20.4418 23.1477 20.4937 23.2246 20.5648C23.3015 20.6358 23.3606 20.724 23.3971 20.8221C23.4336 20.9202 23.4465 21.0255 23.4347 21.1296C23.4229 21.2336 23.3868 21.3334 23.3294 21.4209Z" fill="white"/>
                            </g>
                            <defs>
                            <clipPath id="clip0_1_447">
                            <rect width="37" height="37" fill="white"/>
                            </clipPath>
                            </defs>
                        </svg>    